<svg width="127" height="112" viewBox="0 0 127 112" fill="none" xmlns="http://www.w3.org/2000/svg">
<path d="M72.0352 51.0558C70.5841 49.6081 68.7351 48.6222 66.7223 48.2227C64.7094 47.8232 62.623 48.0282 60.7269 48.8116C58.8308 49.595 57.2101 50.9217 56.0699 52.624C54.9297 54.3263 54.3211 56.3276 54.3211 58.3749C54.3211 60.4222 54.9297 62.4235 56.0699 64.1258C57.2101 65.828 58.8308 67.1548 60.7269 67.9382C62.623 68.7216 64.7094 68.9266 66.7223 68.5271C68.7351 68.1276 70.5841 67.1417 72.0352 65.694C73.981 63.7528 75.0741 61.12 75.0741 58.3749C75.0741 55.6297 73.981 52.997 72.0352 51.0558Z" fill="url(#paint0_linear)"/>
<path d="M106.782 14.1281C106.782 15.1424 106.481 16.1338 105.916 16.9771C105.351 17.8204 104.548 18.4777 103.609 18.8659C102.67 19.254 101.636 19.3555 100.639 19.1577C99.6416 18.9598 98.7256 18.4714 98.0066 17.7542C97.2877 17.037 96.7981 16.1233 96.5997 15.1286C96.4014 14.1338 96.5032 13.1027 96.8923 12.1657C97.2814 11.2286 97.9403 10.4277 98.7856 9.86426C99.631 9.30078 100.625 9.00002 101.642 9.00002C102.317 8.99823 102.987 9.12965 103.611 9.38673C104.236 9.6438 104.803 10.0215 105.281 10.498C105.758 10.9746 106.137 11.5406 106.395 12.1636C106.652 12.7865 106.784 13.4542 106.782 14.1281Z" fill="url(#paint1_linear)"/>
<path d="M21.2813 82.9368C21.2813 83.9511 20.9798 84.9426 20.415 85.7859C19.8501 86.6292 19.0472 87.2865 18.1079 87.6746C17.1686 88.0627 16.135 88.1643 15.1378 87.9664C14.1406 87.7685 13.2246 87.2801 12.5057 86.563C11.7867 85.8458 11.2971 84.932 11.0988 83.9373C10.9004 82.9425 11.0022 81.9114 11.3913 80.9744C11.7804 80.0374 12.4393 79.2365 13.2847 78.673C14.13 78.1095 15.1239 77.8087 16.1407 77.8087C16.8163 77.807 17.4855 77.9384 18.11 78.1955C18.7345 78.4525 19.302 78.8302 19.7797 79.3067C20.2574 79.7833 20.636 80.3493 20.8937 80.9723C21.1514 81.5953 21.2831 82.2629 21.2813 82.9368Z" fill="url(#paint2_linear)"/>
<path d="M79.4198 42.9838C76.8798 40.5581 73.7755 38.7998 70.3858 37.8668C66.9961 36.9339 63.4271 36.8555 59.9995 37.6387C59.4758 36.7601 58.675 36.0793 57.7224 35.7027C56.7698 35.326 55.719 35.2747 54.7341 35.5568C53.7491 35.8388 52.8856 36.4383 52.2783 37.2617C51.671 38.085 51.3542 39.0858 51.3774 40.1077C51.3872 40.6058 51.4886 41.0978 51.6765 41.5593C50.8568 42.195 50.0799 42.8839 49.351 43.6214C46.4471 46.6527 44.5092 50.4747 43.7823 54.6045C43.0554 58.7342 43.5722 62.9862 45.2673 66.823C46.9624 70.6597 49.7597 73.9091 53.3057 76.1603C56.8517 78.4114 60.9871 79.5634 65.1892 79.4705C69.3914 79.3776 73.4716 78.044 76.9141 75.6383C80.3566 73.2327 83.0069 69.8629 84.5299 65.9549C86.053 62.047 86.3804 57.7764 85.4708 53.6828C84.5613 49.5893 82.4556 45.8566 79.4198 42.9567V42.9838ZM79.0254 71.9616C75.3314 75.4382 70.4395 77.366 65.361 77.3465C60.2825 77.327 55.4056 75.3617 51.7385 71.8569C48.0714 68.352 45.8944 63.5756 45.6576 58.515C45.4208 53.4544 47.1423 48.4964 50.4662 44.6661C51.0721 44.0425 51.7172 43.458 52.3973 42.916C52.9912 43.7101 53.8257 44.2923 54.7772 44.5765C55.7286 44.8607 56.7465 44.8317 57.6802 44.4939C58.6138 44.156 59.4136 43.5272 59.9612 42.7006C60.5087 41.874 60.7749 40.8935 60.7203 39.9043C60.7193 39.6026 60.6828 39.3021 60.6115 39.0089C64.7464 38.1413 69.0511 38.6159 72.8963 40.3633C76.7414 42.1108 79.9254 45.0394 81.9827 48.7211C84.04 52.4028 84.8628 56.6444 84.3307 60.8259C83.7986 65.0074 81.9396 68.9095 79.0254 71.9616Z" fill="url(#paint3_linear)"/>
<path d="M116.329 83.5338C116.329 84.2722 116.11 84.9941 115.698 85.6079C115.286 86.2217 114.702 86.6998 114.017 86.9818C113.333 87.2638 112.581 87.3369 111.855 87.1918C111.129 87.0468 110.463 86.6901 109.94 86.167C109.418 85.6439 109.062 84.9778 108.92 84.2532C108.777 83.5287 108.853 82.7781 109.138 82.0966C109.423 81.4152 109.905 80.8335 110.521 80.4251C111.138 80.0168 111.863 79.8003 112.603 79.803C113.093 79.803 113.579 79.8996 114.032 80.0872C114.485 80.2749 114.896 80.5499 115.243 80.8965C115.589 81.2431 115.863 81.6545 116.05 82.1071C116.236 82.5596 116.331 83.0445 116.329 83.5338Z" fill="url(#paint4_linear)"/>
<path d="M114.289 43.5943C114.291 42.4369 114.064 41.2905 113.621 40.2208C113.179 39.151 112.529 38.1788 111.709 37.3597C110.889 36.5407 109.916 35.891 108.844 35.4476C107.772 35.0043 106.623 34.7761 105.463 34.7761C104.659 34.7797 103.859 34.8892 103.083 35.1017C99.608 29.4051 94.8813 24.5702 89.2596 20.9617C83.6379 17.3533 77.2681 15.0656 70.6308 14.2713C63.9935 13.477 57.262 14.1968 50.9443 16.3763C44.6265 18.5559 38.8875 22.1383 34.1602 26.8534C30.179 30.821 26.9981 35.5139 24.79 40.6775C24.3419 40.5908 23.8866 40.5453 23.4301 40.5419C21.6838 40.5319 19.9928 41.1524 18.6692 42.2888C17.3456 43.4252 16.4787 45.0009 16.2285 46.7249C15.9782 48.449 16.3616 50.2052 17.3078 51.6694C18.254 53.1337 19.6991 54.2071 21.3765 54.6916C20.9136 60.8623 21.7599 67.061 23.8603 72.8834C25.9608 78.7059 29.268 84.0212 33.5665 88.4826C37.8649 92.944 43.0579 96.4514 48.8067 98.7759C54.5556 101.1 60.7311 102.19 66.9304 101.973C73.1297 101.756 79.2135 100.238 84.7851 97.5177C90.3566 94.7974 95.2907 90.9359 99.2654 86.1852C103.24 81.4344 106.166 75.9011 107.853 69.9463C109.539 63.9914 109.948 57.7488 109.053 51.6256C110.611 50.9355 111.935 49.8094 112.864 48.3839C113.794 46.9585 114.289 45.2947 114.289 43.5943ZM94.4338 87.0067C88.5008 92.9284 80.892 96.8953 72.6312 98.3739C64.3703 99.8526 55.8537 98.772 48.2269 95.2775C40.6002 91.783 34.2292 86.0422 29.9711 78.8275C25.713 71.6129 23.772 63.2703 24.4092 54.9222C25.8491 54.7288 27.1969 54.1066 28.2767 53.137C29.3565 52.1673 30.118 50.8954 30.4617 49.4872C30.8054 48.0791 30.7154 46.6003 30.2033 45.244C29.6913 43.8877 28.7811 42.717 27.5916 41.8849C30.5461 34.9789 35.3463 29.0157 41.4679 24.6465C47.5894 20.2774 54.7968 17.6704 62.3029 17.1104C69.809 16.5504 77.325 18.0588 84.03 21.4709C90.7349 24.883 96.371 30.0676 100.322 36.4584C98.8065 37.5453 97.6751 39.0837 97.0909 40.8524C96.5066 42.6212 96.4996 44.5292 97.0709 46.3021C97.6422 48.0751 98.7623 49.6217 100.27 50.7196C101.778 51.8175 103.596 52.4102 105.463 52.4124H106.075C106.949 58.682 106.353 65.0685 104.333 71.0691C102.313 77.0697 98.9243 82.5208 94.4338 86.9932V87.0067Z" fill="url(#paint5_linear)"/>
<path d="M87.5524 35.5088C83.3841 31.346 78.1536 28.4002 72.4272 26.9904C66.7009 25.5806 60.697 25.7605 55.0659 27.5106C49.4347 29.2607 44.3908 32.5144 40.4805 36.9192C36.5702 41.324 33.9424 46.7121 32.8819 52.4999C31.8214 58.2878 32.3684 64.2548 34.4639 69.7547C36.5593 75.2546 40.1232 80.0778 44.7696 83.702C49.416 87.3261 54.9679 89.6131 60.8239 90.3152C66.6799 91.0173 72.6169 90.1078 77.9918 87.6851C78.955 88.7071 80.2543 89.3496 81.6527 89.4955C83.0512 89.6414 84.4557 89.281 85.6099 88.4799C86.7642 87.6789 87.5913 86.4906 87.9404 85.1318C88.2895 83.7731 88.1373 82.3344 87.5116 81.0783C93.572 75.0393 96.9806 66.847 96.9882 58.302C96.9959 49.7569 93.6019 41.5585 87.5524 35.5088ZM43.4216 79.5453C39.2196 75.355 36.355 70.0178 35.1886 64.2062C34.0222 58.3946 34.6064 52.3687 36.8674 46.8877C39.1284 41.4067 42.9651 36.7159 47.894 33.4064C52.8229 30.097 58.6236 28.3169 64.565 28.2905C70.5063 28.2641 76.3226 29.9925 81.2809 33.2581C86.2392 36.5236 90.1177 41.1801 92.4275 46.6408C94.7374 52.1015 95.3753 58.122 94.2609 63.9438C93.1465 69.7655 90.3296 75.1279 86.1652 79.3554C85.3124 78.6284 84.2684 78.1608 83.1571 78.0081C82.0458 77.8554 80.9139 78.024 79.8958 78.494C78.8777 78.9639 78.0162 79.7154 77.4135 80.6593C76.8109 81.6031 76.4924 82.6997 76.4959 83.8187C76.5016 84.4896 76.6211 85.1547 76.8495 85.7858C71.2969 88.2311 65.1327 88.9437 59.1667 87.8299C53.2007 86.7161 47.7119 83.8281 43.4216 79.5453Z" fill="url(#paint6_linear)"/>
<defs>
<linearGradient id="paint0_linear" x1="72.0305" y1="65.6358" x2="57.4014" y2="50.9708" gradientUnits="userSpaceOnUse">
<stop stop-color="#C244A9"/>
<stop offset="0.677083" stop-color="#497EC8"/>
<stop offset="1" stop-color="#497EC8"/>
</linearGradient>
<linearGradient id="paint1_linear" x1="106.782" y1="14.1281" x2="96.5146" y2="14.1281" gradientUnits="userSpaceOnUse">
<stop stop-color="#E592FB"/>
<stop offset="0.51" stop-color="#7B6DFA"/>
<stop offset="1" stop-color="#5E31F9"/>
</linearGradient>
<linearGradient id="paint2_linear" x1="340.106" y1="636.772" x2="262.482" y2="636.772" gradientUnits="userSpaceOnUse">
<stop stop-color="#E592FB"/>
<stop offset="0.338542" stop-color="#D0BCEF"/>
<stop offset="0.651042" stop-color="#7B6DFA"/>
<stop offset="1" stop-color="#9B5AD5"/>
</linearGradient>
<linearGradient id="paint3_linear" x1="43.0544" y1="36.689" x2="81.5014" y2="75.2439" gradientUnits="userSpaceOnUse">
<stop stop-color="#3762FA"/>
<stop offset="0.114583" stop-color="#60A8FB"/>
<stop offset="0.505418" stop-color="#8B7CD7"/>
<stop offset="1" stop-color="#C244A9"/>
</linearGradient>
<linearGradient id="paint4_linear" x1="662.806" y1="489.739" x2="907.995" y2="489.739" gradientUnits="userSpaceOnUse">
<stop stop-color="#9B5AD5"/>
<stop offset="0.51" stop-color="#7B6DFA"/>
<stop offset="1" stop-color="#5E31F9"/>
</linearGradient>
<linearGradient id="paint5_linear" x1="9742.36" y1="139.858" x2="4717.49" y2="5740.8" gradientUnits="userSpaceOnUse">
<stop stop-color="#497EC8"/>
<stop offset="0.71875" stop-color="#7B6DFA"/>
<stop offset="1" stop-color="#C244A9"/>
</linearGradient>
<linearGradient id="paint6_linear" x1="5026.56" y1="844.488" x2="3413.51" y2="3827.04" gradientUnits="userSpaceOnUse">
<stop stop-color="#497EC8"/>
<stop offset="0.15625" stop-color="#60A8FB"/>
<stop offset="1" stop-color="#C244A9"/>
</linearGradient>
</defs>
</svg>
